HIERARCHY
ROOT Hips
{
    OFFSET 0.000000 0.000000 0.000000
    CHANNELS 6 Xposition Yposition Zposition Zrotation Xrotation Yrotation
    JOINT Spine
    {
        OFFSET -0.000000 14.517291 0.000000
        CHANNELS 3 Zrotation Xrotation Yrotation
        JOINT Spine1
        {
            OFFSET -0.000000 37.558300 0.000000
            CHANNELS 3 Zrotation Xrotation Yrotation
            JOINT Neck
            {
                OFFSET -0.000000 37.404057 3.400369
                CHANNELS 3 Zrotation Xrotation Yrotation
                JOINT Head
                {
                    OFFSET -0.000000 24.785618 -3.540803
                    CHANNELS 3 Zrotation Xrotation Yrotation
                    End Site
                    {
                        OFFSET -0.000000 35.408028 0.000000
                    }
                }
            }
            JOINT LeftShoulder
            {
                OFFSET 6.992933 33.973492 -0.192664
                CHANNELS 3 Zrotation Xrotation Yrotation
                JOINT LeftArm
                {
                    OFFSET 21.527611 0.000000 0.000000
                    CHANNELS 3 Zrotation Xrotation Yrotation
                    JOINT LeftForeArm
                    {
                        OFFSET 56.353916 0.000000 0.000000
                        CHANNELS 3 Zrotation Xrotation Yrotation
                        JOINT LeftHand
                        {
                            OFFSET 47.774071 0.000000 0.000000
                            CHANNELS 3 Zrotation Xrotation Yrotation
                            End Site
                            {
                                OFFSET 26.556021 0.000000 0.000000
                            }
                        }
                    }
                }
            }
            JOINT RightShoulder
            {
                OFFSET -7.065357 33.973492 -0.192664
                CHANNELS 3 Zrotation Xrotation Yrotation
                JOINT RightArm
                {
                    OFFSET -21.527611 0.000000 0.000000
                    CHANNELS 3 Zrotation Xrotation Yrotation
                    JOINT RightForeArm
                    {
                        OFFSET -56.353916 0.000000 0.000000
                        CHANNELS 3 Zrotation Xrotation Yrotation
                        JOINT RightHand
                        {
                            OFFSET -47.774071 0.000000 0.000000
                            CHANNELS 3 Zrotation Xrotation Yrotation
                            End Site
                            {
                                OFFSET -26.556021 0.000000 0.000000
                            }
                        }
                    }
                }
            }
        }
    }
    JOINT LeftUpLeg
    {
        OFFSET 17.704014 0.000000 0.000000
        CHANNELS 3 Zrotation Xrotation Yrotation
        JOINT LeftLeg
        {
            OFFSET -0.000000 -81.181816 0.000000
            CHANNELS 3 Zrotation Xrotation Yrotation
            JOINT LeftFoot
            {
                OFFSET -0.000000 -62.821102 0.000000
                CHANNELS 3 Zrotation Xrotation Yrotation
                JOINT LeftToeBase
                {
                    OFFSET -0.000000 -11.507608 26.556021
                    CHANNELS 3 Zrotation Xrotation Yrotation
                    End Site
                    {
                        OFFSET -0.000000 0.000000 7.081605
                    }
                }
            }
        }
    }
    JOINT RightUpLeg
    {
        OFFSET -17.704014 0.000000 0.000000
        CHANNELS 3 Zrotation Xrotation Yrotation
        JOINT RightLeg
        {
            OFFSET -0.000000 -81.181816 0.000000
            CHANNELS 3 Zrotation Xrotation Yrotation
            JOINT RightFoot
            {
                OFFSET -0.000000 -62.821102 0.000000
                CHANNELS 3 Zrotation Xrotation Yrotation
                JOINT RightToeBase
                {
                    OFFSET -0.000000 -11.507608 26.556021
                    CHANNELS 3 Zrotation Xrotation Yrotation
                    End Site
                    {
                        OFFSET -0.000000 0.000000 7.081605
                    }
                }
            }
        }
    }
}
MOTION
Frames:    8
Frame Time:    0.008333
-11.617669    151.121765    -10.571485    -0.320800    0.832940    29.387815    1.174743    3.095194    15.896570    -8.228426    -0.001083    5.310651    -0.689787    -0.043975    -12.154325    13.839257    0.778133    -10.695951    1.146138    1.585969    -7.363136    -41.494247    19.201168    -47.286789    -11.917555    -14.591776    -132.394516    2.801856    -39.101265    -6.322950    -13.836980    2.146780    12.126126    31.831963    -16.202845    84.429993    6.664254    -28.174234    16.933508    18.982946    -22.996920    38.702637    -1.045198    -35.390133    -30.936657    -10.779196    23.115255    -23.390528    -10.944618    3.587377    28.242014    0.000000    0.000000    0.000000    6.864758    11.919519    -18.905706    2.829638    23.429775    -1.425506    -3.670566    -30.282400    -6.683977    0.000000    0.000000    0.000000    
-11.622951    151.140060    -10.586323    -0.338504    0.842389    29.383343    1.170959    3.086346    15.918928    -8.221650    -0.004296    5.317808    -0.711839    -0.061377    -12.160042    13.851591    0.812613    -10.700999    1.128981    1.590043    -7.352902    -41.498158    19.191475    -47.283890    -11.910382    -14.593564    -132.383209    2.806317    -39.083549    -6.326740    -13.864305    2.138066    12.128040    31.903603    -16.145397    84.547989    6.764166    -28.066343    17.082323    18.938259    -22.920206    38.708412    -1.003449    -35.383343    -30.930546    -10.782172    23.045719    -23.332434    -11.021988    3.577942    28.206894    0.000000    0.000000    0.000000    6.879143    11.908097    -18.861105    2.841321    23.393061    -1.431960    -3.673183    -30.244225    -6.719917    0.000000    0.000000    0.000000    
-11.626845    151.161224    -10.597010    -0.351421    0.848502    29.370636    1.168482    3.082769    15.947277    -8.231645    -0.014398    5.326496    -0.725601    -0.061019    -12.172271    13.878598    0.839799    -10.711382    1.130835    1.587315    -7.357184    -41.514717    19.190123    -47.254089    -11.904102    -14.595717    -132.378006    2.830445    -39.071461    -6.316223    -13.881434    2.163728    12.129798    31.992729    -16.117876    84.686302    6.858988    -27.987631    17.205320    18.886627    -22.873310    38.720562    -0.955664    -35.367626    -30.915457    -10.792974    22.971653    -23.263588    -11.067585    3.589310    28.165855    0.000000    0.000000    0.000000    6.888492    11.899128    -18.819975    2.852026    23.366119    -1.439281    -3.679970    -30.197006    -6.755623    0.000000    0.000000    0.000000    
-11.630820    151.183197    -10.613184    -0.356479    0.858169    29.361340    1.151878    3.077080    15.966379    -8.227211    -0.014185    5.332707    -0.742935    -0.056829    -12.183505    13.899612    0.846623    -10.718575    1.116642    1.582773    -7.354515    -41.519337    19.185114    -47.242424    -11.897491    -14.603319    -132.371658    2.872590    -39.063141    -6.293331    -13.911752    2.181558    12.151127    32.058365    -16.094414    84.793953    6.908322    -27.831497    17.319597    18.905838    -22.718374    38.715084    -0.918355    -35.353222    -30.924036    -10.819723    22.890884    -23.153553    -11.124492    3.596133    28.122334    0.000000    0.000000    0.000000    6.887376    11.886204    -18.813276    2.845725    23.347435    -1.430633    -3.646600    -30.163874    -6.749116    0.000000    0.000000    0.000000    
-11.636964    151.209229    -10.629432    -0.368376    0.864051    29.347286    1.149631    3.073904    15.986279    -8.233649    -0.009745    5.339631    -0.777351    -0.077478    -12.198053    13.938586    0.879971    -10.727296    1.110898    1.575738    -7.340734    -41.515045    19.191187    -47.240086    -11.891495    -14.638362    -132.372910    2.861547    -39.080013    -6.281476    -13.939010    2.205841    12.167975    32.081139    -16.065489    84.881912    7.000092    -27.885332    17.543821    18.702200    -22.857794    38.776890    -0.883428    -35.338463    -30.904978    -10.811748    22.832428    -23.092239    -11.182904    3.601765    28.091749    0.000000    0.000000    0.000000    6.892572    11.875356    -18.789610    2.851496    23.322580    -1.429716    -3.637433    -30.116674    -6.760726    0.000000    0.000000    0.000000    
-11.642932    151.230377    -10.640050    -0.375290    0.863423    29.336744    1.134518    3.071361    16.002115    -8.220767    -0.000685    5.345428    -0.787818    -0.088386    -12.211517    13.931774    0.888980    -10.741744    1.093434    1.568678    -7.341524    -41.511009    19.177128    -47.229248    -11.879831    -14.661180    -132.368713    2.841834    -39.073257    -6.277418    -13.958988    2.234695    12.181847    32.129047    -16.059538    84.982330    7.065362    -27.762846    17.691748    18.670565    -22.768353    38.720219    -0.844003    -35.319557    -30.890162    -10.826930    22.771582    -23.003370    -11.219211    3.612018    28.047483    0.000000    0.000000    0.000000    6.900183    11.873198    -18.789747    2.845344    23.302847    -1.426737    -3.632959    -30.080181    -6.757882    0.000000    0.000000    0.000000    
-11.652173    151.246857    -10.655793    -0.387781    0.861277    29.326143    1.135765    3.073101    16.012766    -8.230644    0.013044    5.349996    -0.801300    -0.101613    -12.217383    13.948421    0.886872    -10.743276    1.092705    1.550490    -7.330964    -41.514473    19.171841    -47.229397    -11.883152    -14.686520    -132.366882    2.763231    -39.095856    -6.293697    -13.969890    2.244809    12.203972    32.177441    -16.057426    85.066833    7.133710    -27.680180    17.820887    18.651669    -22.699341    38.759159    -0.798385    -35.309811    -30.885258    -10.852735    22.711632    -22.928110    -11.277201    3.614232    28.031630    0.000000    0.000000    0.000000    6.911143    11.871016    -18.782955    2.850837    23.273375    -1.438189    -3.625007    -30.043961    -6.739972    0.000000    0.000000    0.000000    
-11.657377    151.263077    -10.674819    -0.394943    0.861687    29.323416    1.136077    3.082192    16.019041    -8.245121    0.014170    5.352199    -0.812005    -0.096204    -12.230149    13.955531    0.865521    -10.751550    1.087466    1.535172    -7.338565    -41.511044    19.155329    -47.211227    -11.883578    -14.711205    -132.371521    2.735205    -39.117840    -6.307549    -13.982783    2.270103    12.218398    32.233017    -16.063578    85.158638    7.181000    -27.564682    17.923578    18.682823    -22.578093    38.779392    -0.771229    -35.300045    -30.882511    -10.867070    22.654579    -22.852324    -11.317760    3.641588    27.995813    0.000000    0.000000    0.000000    6.915641    11.862151    -18.778240    2.853425    23.265083    -1.442132    -3.622951    -30.018919    -6.746086    0.000000    0.000000    0.000000    
